<?xml version="1.0" standalone="no"?>
<!DOCTYPE svg PUBLIC "-//W3C//DTD SVG 20010904//EN"
 "http://www.w3.org/TR/2001/REC-SVG-20010904/DTD/svg10.dtd">
<svg version="1.0" xmlns="http://www.w3.org/2000/svg"
 width="4096.000000pt" height="4096.000000pt" viewBox="0 0 4096.000000 4096.000000"
 preserveAspectRatio="xMidYMid meet">
<metadata>
Created by potrace 1.16, written by Peter Selinger 2001-2019
</metadata>
<g transform="translate(0.000000,4096.000000) scale(0.100000,-0.100000)"
fill="#ffffff" stroke="none">
<path d="M19900 40930 l0 -30 -97 0 c-295 0 -1052 -55 -1593 -116 -3260 -364
-6413 -1527 -9140 -3372 -2201 -1489 -4090 -3385 -5565 -5587 -1912 -2853
-3062 -6098 -3375 -9520 -35 -394 -70 -953 -70 -1147 l0 -98 -30 0 -30 0 0
-580 0 -580 30 0 30 0 0 -97 c0 -195 35 -754 70 -1148 313 -3421 1464 -6668
3375 -9520 2276 -3395 5527 -6047 9300 -7583 1986 -808 4096 -1300 6225 -1451
361 -26 646 -41 778 -41 l102 0 0 -30 0 -30 570 0 570 0 0 30 0 30 103 0 c197
0 752 34 1152 70 4380 399 8470 2179 11775 5124 461 411 1059 1003 1489 1474
2799 3070 4596 6905 5155 11002 93 682 176 1655 176 2073 l0 97 30 0 30 0 0
580 0 580 -30 0 -30 0 0 98 c0 187 -36 767 -70 1147 -346 3784 -1722 7363
-3999 10400 -1592 2124 -3566 3908 -5841 5282 -2671 1612 -5686 2589 -8800
2853 -396 33 -855 60 -1032 60 l-98 0 0 30 0 30 -580 0 -580 0 0 -30z m-2716
-11372 c127 -261 137 -285 134 -331 l-3 -49 -290 -73 c-451 -113 -790 -214
-1165 -347 -1279 -454 -2386 -1094 -3500 -2022 -79 -67 -151 -127 -160 -134
-8 -7 134 61 315 151 1741 860 3036 1322 4535 1616 1433 281 3120 375 4800
266 1663 -108 3190 -441 4685 -1022 595 -232 1115 -463 1905 -849 l335 -163
-55 50 c-78 72 -436 364 -608 497 -852 654 -1729 1135 -2775 1521 -470 174
-1114 370 -1579 482 l-98 23 0 56 c0 53 10 78 136 335 l136 278 101 -7 c142
-10 422 -42 612 -71 1299 -198 2697 -716 4040 -1498 360 -210 791 -489 1040
-674 l120 -90 87 -140 c490 -791 1029 -1929 1476 -3118 913 -2430 1533 -5200
1821 -8145 49 -501 96 -1094 107 -1345 l6 -140 -113 -125 c-1198 -1328 -2781
-2305 -4658 -2874 -887 -269 -1907 -451 -2708 -482 l-171 -7 -476 637 c-471
630 -476 637 -476 684 l0 47 153 54 c532 189 1219 500 1727 782 931 517 1767
1142 2505 1872 l200 197 -185 -123 c-512 -340 -986 -615 -1525 -882 -1788
-887 -3767 -1375 -6055 -1495 -544 -29 -1597 -29 -2120 -1 -2987 163 -5409
925 -7615 2397 l-170 114 203 -200 c1008 -990 2142 -1761 3437 -2337 215 -96
612 -255 817 -329 l138 -49 0 -49 c0 -48 -1 -50 -472 -683 l-473 -634 -175 6
c-518 17 -1195 110 -1830 251 -1733 386 -3276 1115 -4525 2139 -325 266 -752
673 -1008 961 -138 155 -127 94 -97 520 233 3352 851 6390 1855 9119 445 1210
1026 2447 1520 3238 l93 149 128 95 c161 118 493 342 684 460 1426 884 2989
1480 4460 1703 246 37 504 68 581 69 l56 1 137 -282z"/>
<path d="M16520 21590 c-666 -93 -1233 -522 -1554 -1175 -147 -298 -228 -599
-257 -948 -44 -552 162 -1212 519 -1662 75 -94 231 -254 317 -324 361 -295
806 -456 1210 -437 595 27 1172 379 1535 936 74 115 195 359 245 494 76 206
128 452 147 699 24 299 -33 683 -147 993 -50 135 -171 379 -245 494 -369 567
-956 920 -1555 935 -82 2 -179 0 -215 -5z"/>
<path d="M24110 21594 c-580 -77 -1094 -408 -1433 -924 -148 -226 -281 -542
-341 -812 -90 -405 -85 -746 19 -1154 45 -175 91 -298 180 -479 300 -611 809
-1023 1425 -1152 106 -22 151 -27 295 -27 193 -1 300 15 483 70 309 94 576
257 822 504 404 403 641 937 691 1553 33 413 -79 918 -293 1317 -174 325 -438
617 -733 810 -186 122 -444 226 -670 270 -107 21 -361 35 -445 24z"/>
</g>
</svg>
