<?xml version="1.0" standalone="no"?>
<!DOCTYPE svg PUBLIC "-//W3C//DTD SVG 20010904//EN"
 "http://www.w3.org/TR/2001/REC-SVG-20010904/DTD/svg10.dtd">
<svg version="1.0" xmlns="http://www.w3.org/2000/svg"
 width="4096.000000pt" height="4096.000000pt" viewBox="0 0 4096.000000 4096.000000"
 preserveAspectRatio="xMidYMid meet">
<metadata>
Created by potrace 1.16, written by Peter Selinger 2001-2019
</metadata>
<g transform="translate(0.000000,4096.000000) scale(0.100000,-0.100000)"
fill="#ffffff" stroke="none">
<path d="M19900 40932 l0 -29 -207 -7 c-770 -24 -1715 -121 -2558 -262 -4642
-773 -8875 -3133 -12002 -6691 -2154 -2451 -3688 -5373 -4477 -8528 -261
-1044 -437 -2097 -530 -3165 -38 -431 -66 -901 -66 -1092 l0 -98 -30 0 -30 0
0 -580 0 -580 30 0 30 0 0 -97 c0 -192 28 -662 66 -1093 281 -3243 1348 -6393
3097 -9145 1804 -2838 4265 -5184 7182 -6847 2639 -1505 5599 -2403 8625
-2617 356 -26 646 -41 773 -41 l97 0 0 -30 0 -30 580 0 580 0 0 30 0 30 98 0
c177 0 727 33 1097 66 5240 461 10099 2930 13583 6904 2823 3218 4563 7229
4977 11470 43 444 70 840 81 1192 l7 208 29 0 28 0 0 580 0 580 -30 0 -30 0 0
98 c0 260 -50 978 -101 1457 -399 3759 -1824 7311 -4138 10315 -1161 1508
-2566 2882 -4096 4007 -2384 1752 -5086 2958 -7969 3554 -1082 224 -2302 372
-3328 405 l-208 7 0 29 0 28 -580 0 -580 0 0 -28z m5174 -10867 c500 -48 940
-171 1392 -389 198 -96 332 -174 539 -311 287 -192 552 -412 798 -664 70 -72
134 -131 142 -131 47 0 534 139 795 227 624 211 1323 532 1890 869 95 56 115
64 159 64 l51 0 0 -58 c0 -78 -71 -287 -192 -567 -329 -761 -847 -1431 -1465
-1894 -56 -42 -100 -77 -99 -78 5 -5 299 46 451 77 582 121 1122 304 1611 545
158 79 200 95 238 95 l46 0 0 -55 c0 -49 -6 -64 -62 -157 -230 -381 -566 -842
-872 -1198 -352 -410 -861 -911 -1303 -1284 l-133 -111 0 -400 c-1 -894 -50
-1584 -171 -2370 -415 -2709 -1591 -5313 -3299 -7305 -449 -523 -981 -1050
-1493 -1479 -574 -481 -1205 -916 -1857 -1280 -203 -114 -721 -373 -929 -465
-1270 -560 -2612 -894 -4026 -1000 -695 -53 -1615 -47 -2225 14 -1223 122
-2396 423 -3525 905 -733 313 -1346 643 -2027 1091 l-218 143 0 57 0 56 68 -5
c37 -2 128 -14 202 -25 247 -38 382 -46 785 -46 398 -1 593 9 920 45 1361 149
2687 635 3860 1414 216 143 410 283 572 411 l102 81 -112 7 c-583 35 -1113
177 -1622 435 -411 209 -730 439 -1069 771 -408 400 -713 829 -971 1363 -154
321 -285 677 -285 778 l0 59 48 0 c26 0 97 -11 157 -25 302 -67 770 -71 1191
-10 195 28 444 76 444 85 0 3 -46 21 -102 39 -684 221 -1343 636 -1870 1179
-775 798 -1253 1821 -1383 2957 -14 118 -33 506 -35 678 l0 47 54 0 c45 0 66
-7 128 -42 122 -70 425 -213 573 -271 333 -131 639 -210 971 -252 203 -26 202
-27 65 87 -894 741 -1492 1853 -1650 3068 -40 305 -46 408 -46 810 1 385 8
534 41 810 71 605 237 1138 492 1583 l56 97 50 -1 51 0 104 -135 c500 -647
1174 -1352 1839 -1922 1825 -1564 4024 -2568 6302 -2876 304 -42 758 -86 881
-86 l55 0 -12 73 c-25 146 -34 260 -46 595 -23 668 21 1180 147 1689 219 885
660 1677 1280 2298 752 753 1712 1207 2740 1294 174 15 638 12 809 -4z"/>
</g>
</svg>
