<?xml version="1.0" standalone="no"?>
<!DOCTYPE svg PUBLIC "-//W3C//DTD SVG 20010904//EN"
 "http://www.w3.org/TR/2001/REC-SVG-20010904/DTD/svg10.dtd">
<svg version="1.0" xmlns="http://www.w3.org/2000/svg"
 width="4096.000000pt" height="4096.000000pt" viewBox="0 0 4096.000000 4096.000000"
 preserveAspectRatio="xMidYMid meet">
<metadata>
Created by potrace 1.16, written by Peter Selinger 2001-2019
</metadata>
<g transform="translate(0.000000,4096.000000) scale(0.100000,-0.100000)"
fill="#ffffff" stroke="none">
<path d="M19900 40932 l0 -29 -207 -7 c-770 -24 -1715 -121 -2558 -262 -4642
-773 -8875 -3133 -12002 -6691 -2154 -2451 -3688 -5373 -4477 -8528 -261
-1044 -437 -2097 -530 -3165 -38 -431 -66 -901 -66 -1092 l0 -98 -30 0 -30 0
0 -580 0 -580 30 0 30 0 0 -97 c0 -192 28 -662 66 -1093 281 -3243 1348 -6393
3097 -9145 1804 -2838 4265 -5184 7182 -6847 2639 -1505 5599 -2403 8625
-2617 356 -26 646 -41 773 -41 l97 0 0 -30 0 -30 580 0 580 0 0 30 0 30 98 0
c177 0 727 33 1097 66 5240 461 10099 2930 13583 6904 2823 3218 4563 7229
4977 11470 43 444 70 840 81 1192 l7 208 29 0 28 0 0 580 0 580 -30 0 -30 0 0
98 c0 260 -50 978 -101 1457 -399 3759 -1824 7311 -4138 10315 -1161 1508
-2566 2882 -4096 4007 -2384 1752 -5086 2958 -7969 3554 -1082 224 -2302 372
-3328 405 l-208 7 0 29 0 28 -580 0 -580 0 0 -28z m12870 -16244 l0 -7843
-3337 -3337 -3338 -3338 -2510 0 -2510 0 -1670 -1670 -1670 -1670 -1712 0
-1713 0 0 1670 0 1670 -3060 0 -3060 0 0 8948 0 8947 842 2232 843 2233 11448
0 11447 0 0 -7842z"/>
<path d="M12170 22180 l0 -8020 2510 0 2510 0 0 -1622 0 -1623 1623 1623 1622
1622 3061 0 3061 0 1946 1950 1947 1949 0 6071 0 6070 -9140 0 -9140 0 0
-8020z m8360 280 l0 -3390 -1165 0 -1165 0 0 3390 0 3390 1165 0 1165 0 0
-3390z m6120 0 l0 -3390 -1165 0 -1165 0 0 3390 0 3390 1165 0 1165 0 0 -3390z"/>
</g>
</svg>
